<svg xmlns="http://www.w3.org/2000/svg" viewBox="0 0 86.82 69.37"><defs><style>.cls-1{isolation:isolate;}.cls-2{mix-blend-mode:multiply;}.cls-3{fill:#e9e8e8;}.cls-4{fill:#fedda8;}.cls-5{fill:#ab6838;}.cls-6{fill:#dea966;}.cls-7{fill:#f9c98a;}.cls-8{fill:#bc7d45;}.cls-9{fill:#eec994;}.cls-10{fill:#4f2e17;}.cls-11{fill:#c78c51;}</style></defs><g class="cls-1"><g id="Camada_1" data-name="Camada 1"><g class="cls-2"><polygon class="cls-3" points="56.75 50.14 23.13 30.73 0 44.09 33.62 63.5 56.75 50.14"/></g><path class="cls-4" d="M69.55,83l4.71-2.71L85,74.06V43.44L74.24,49.65l-4.69,2.7L57.89,59.08V89.71Z" transform="translate(-16.5 -30.19)"/><path class="cls-5" d="M84.64,73.85V44.06L58.35,59.35l-.09,29.74Z" transform="translate(-16.5 -30.19)"/><path class="cls-6" d="M84.64,73.85,61.37,60.42l-3,1.94-.06,26.73Z" transform="translate(-16.5 -30.19)"/><polygon class="cls-7" points="41.4 28.89 18.56 15.71 30.15 8.96 34.84 6.23 45.55 0 68.5 13.24 57.74 19.45 53.04 22.18 41.4 28.89"/><path class="cls-8" d="M57.89,59.09,35.06,45.9,35,76.46,57.9,89.69Z" transform="translate(-16.5 -30.19)"/><polygon class="cls-4" points="68.56 43.4 83.83 40.64 84.16 10.71 83.65 10.41 68.5 13.24 68.18 13.69 68.17 43.19 68.56 43.4"/><path class="cls-6" d="M100.65,40.89l-16,3,0,30,.39.21,15.44-2.72Z" transform="translate(-16.5 -30.19)"/><polygon class="cls-8" points="86.82 49.71 67.81 44.14 41.59 58.98 41.4 59.43 60.42 65.48 86.82 50.32 86.82 49.71"/><path class="cls-9" d="M58.09,89.17l18.83,5.94L103.31,79.9,84.64,73.85Z" transform="translate(-16.5 -30.19)"/><polygon class="cls-10" points="22 21.79 22 21.57 24.81 23.2 24.81 23.41 22 21.79"/><polygon class="cls-10" points="24.19 23.83 24.06 23.6 24.74 23.26 24.06 22.15 24.19 22.07 25.01 23.42 24.19 23.83"/><polygon class="cls-10" points="22 23.95 22 23.73 24.81 25.35 24.81 25.57 22 23.95"/><polygon class="cls-10" points="24.19 25.98 24.06 25.75 24.73 25.42 24.06 24.31 24.19 24.22 25.01 25.58 24.19 25.98"/><path class="cls-10" d="M38.4,54.91v-4c0-.06,0-.09.09-.06a.23.23,0,0,1,.1.16v4s0,.08-.1,0A.2.2,0,0,1,38.4,54.91Z" transform="translate(-16.5 -30.19)"/><path class="cls-10" d="M37.65,54.44V50.49c0-.42.3-.58.66-.38l3.42,2a1.41,1.41,0,0,1,.65,1.13v4c0,.42-.3.59-.66.38l-3.42-2A1.45,1.45,0,0,1,37.65,54.44Zm4.55-1.33a1,1,0,0,0-.47-.81l-3.42-2c-.26-.15-.47,0-.47.27v3.95a1,1,0,0,0,.47.81l3.42,2c.26.14.47,0,.47-.27Z" transform="translate(-16.5 -30.19)"/><path class="cls-10" d="M37.67,60.77v-4c0-.42.29-.59.65-.38l3.42,2a1.45,1.45,0,0,1,.66,1.13v4c0,.42-.3.58-.65.37l-3.43-2A1.44,1.44,0,0,1,37.67,60.77Zm4.54-1.33a1,1,0,0,0-.47-.81l-3.42-2c-.26-.14-.47,0-.47.27v4a1,1,0,0,0,.47.8l3.42,2c.26.15.47,0,.47-.27Z" transform="translate(-16.5 -30.19)"/><path class="cls-10" d="M38.6,59.33c0-.06,0-.09.1,0l2.44,1.41a.19.19,0,0,1,.1.16c0,.06,0,.09-.1.06l-2.45-1.42A.2.2,0,0,1,38.6,59.33Z" transform="translate(-16.5 -30.19)"/><path class="cls-10" d="M38.6,59.82v-1c0-.06,0-.08.09-.06a.19.19,0,0,1,.1.17v1c0,.06,0,.08-.09,0A.19.19,0,0,1,38.6,59.82Z" transform="translate(-16.5 -30.19)"/><path class="cls-10" d="M41.46,62l-1.14-.67a1.22,1.22,0,0,1-.56-1v-.79c0-.36.25-.51.56-.33l1.14.66v.39l-1.22-.7c-.05,0-.1,0-.09,0a.16.16,0,0,0,.09.16l1.22.71Z" transform="translate(-16.5 -30.19)"/><path class="cls-11" d="M61.53,60.51v-3l-3.2,1.86v3Z" transform="translate(-16.5 -30.19)"/><polygon class="cls-4" points="78.69 3.63 68.12 13.71 41.85 29.16 41.43 28.91 51.52 18.41 78.28 3.39 78.69 3.63"/><path class="cls-6" d="M84.68,44l10.5-10.17-26.75,15L58.35,59.35Z" transform="translate(-16.5 -30.19)"/><path class="cls-5" d="M57.71,89.18l.64-29.83-.48-.27L48.42,69l-.18,30.37.39.23Z" transform="translate(-16.5 -30.19)"/><path class="cls-9" d="M58.26,89.09l.09-29.74L48.8,69.19l-.17,30.38,9.27-9.86Z" transform="translate(-16.5 -30.19)"/></g></g></svg>