<svg xmlns="http://www.w3.org/2000/svg" xmlns:xlink="http://www.w3.org/1999/xlink" viewBox="0 0 431.91 393.56"><defs><style>.cls-1{isolation:isolate;}.cls-2{fill:#b7e0ea;}.cls-3{fill:#90cfdd;}.cls-19,.cls-3{opacity:0.55;}.cls-4{fill:#7bc9e8;}.cls-5{fill:#d8eef7;}.cls-6{fill:#0b83c2;}.cls-7{fill:#fff;}.cls-8{fill:#fbbe4f;}.cls-9{fill:#09678f;}.cls-10{fill:#0c566d;}.cls-11{fill:#f28b41;}.cls-12{fill:#ee711d;}.cls-13{fill:none;}.cls-14{fill:#efaa3a;}.cls-15{fill:#f28c2f;opacity:0.29;mix-blend-mode:multiply;}.cls-16{fill:#4ab4d6;}.cls-17{fill:#f59d54;}.cls-18{fill:#f07e31;}.cls-19{mix-blend-mode:overlay;fill:url(#linear-gradient);}</style><linearGradient id="linear-gradient" x1="237.37" y1="361.34" x2="237.37" y2="337.29" gradientUnits="userSpaceOnUse"><stop offset="0" stop-color="#fff"/><stop offset="0.12" stop-color="#fff" stop-opacity="0.82"/><stop offset="0.3" stop-color="#fff" stop-opacity="0.58"/><stop offset="0.47" stop-color="#fff" stop-opacity="0.37"/><stop offset="0.64" stop-color="#fff" stop-opacity="0.21"/><stop offset="0.78" stop-color="#fff" stop-opacity="0.1"/><stop offset="0.91" stop-color="#fff" stop-opacity="0.02"/><stop offset="1" stop-color="#fff" stop-opacity="0"/></linearGradient></defs><g class="cls-1"><g id="Camada_1" data-name="Camada 1"><path class="cls-2" d="M499.71,617.78a12.73,12.73,0,0,0,12.73-12.53c.53-34.64,3.32-85.74-61.92-99.88-52.8-11.43-21.5-105.26-163.69-99.2-102.08,4.35-75,90.39-154.32,97.55-52.81,4.77-53.27,71.56-51.24,102.16A12.73,12.73,0,0,0,94,617.78Z" transform="translate(-80.69 -224.22)"/><path class="cls-3" d="M450.52,505.37c-52.8-11.43-21.5-105.26-163.69-99.2-24.28,1-41.24,6.7-54.07,14.81,4.32-.56,8.91-1,13.8-1.17,142.19-6.06,110.89,87.77,163.69,99.2,64.55,14,62.5,64.15,61.94,98.77h27.52a12.73,12.73,0,0,0,12.73-12.53C513,570.61,515.76,519.51,450.52,505.37Z" transform="translate(-80.69 -224.22)"/><rect class="cls-4" x="143.73" width="2.24" height="163.8"/><rect class="cls-4" x="304.7" width="2.24" height="188.96"/><path class="cls-5" d="M387.42,402.17l-167-19.49a13,13,0,0,0-14.42,11.41L193.59,500.85A13,13,0,0,0,205,515.27l167,19.49a13,13,0,0,0,14.42-11.41L398.83,416.6A13,13,0,0,0,387.42,402.17Z" transform="translate(-80.69 -224.22)"/><path class="cls-6" d="M397.6,427.16l1.23-10.56a13,13,0,0,0-11.41-14.43l-167-19.49a13,13,0,0,0-14.42,11.41l-1.23,10.57Z" transform="translate(-80.69 -224.22)"/><path class="cls-4" d="M231.83,469.3,253,432a6.84,6.84,0,0,1,6.74-3.41h0a6.83,6.83,0,0,1,6,7.58l-4.4,37.72.19,0a4.74,4.74,0,0,1,4.16,5.25h0a4.75,4.75,0,0,1-5.26,4.16l-.19,0-.8,6.87a5.11,5.11,0,0,1-5.67,4.48h0a5.1,5.1,0,0,1-4.49-5.67l.8-6.87-15.23-1.78a4.74,4.74,0,0,1-4.17-5.26l.41-3.46A6,6,0,0,1,231.83,469.3Zm19.4,2.79L254,448.7a.15.15,0,0,0-.28-.09l-12.5,22.06a.63.63,0,0,0,.47.93l8.89,1A.63.63,0,0,0,251.23,472.09Z" transform="translate(-80.69 -224.22)"/><path class="cls-4" d="M325.22,480.2l21.16-37.28a6.84,6.84,0,0,1,6.74-3.42h0a6.84,6.84,0,0,1,6,7.58l-4.4,37.72.19,0a4.74,4.74,0,0,1,4.15,5.26h0a4.73,4.73,0,0,1-5.25,4.15l-.19,0-.8,6.87a5.13,5.13,0,0,1-5.68,4.49h0a5.12,5.12,0,0,1-4.48-5.68l.8-6.87-15.24-1.78a4.74,4.74,0,0,1-4.16-5.26l.4-3.46A6.34,6.34,0,0,1,325.22,480.2ZM344.63,483l2.73-23.39a.15.15,0,0,0-.28-.09l-12.5,22.06a.62.62,0,0,0,.47.93l8.88,1A.63.63,0,0,0,344.63,483Z" transform="translate(-80.69 -224.22)"/><path class="cls-4" d="M283.24,447.37c1.23-10.54,7.48-15.92,17.64-14.73s15,7.86,13.78,18.39l-4,34.25C309.44,495.82,303.18,501.2,293,500s-15-7.86-13.78-18.39Zm6.27,36.11c-.55,4.71,1.31,6.74,4.61,7.12s5.57-1.16,6.12-5.87l4.15-35.56c.55-4.71-1.31-6.74-4.61-7.12s-5.57,1.16-6.12,5.87Z" transform="translate(-80.69 -224.22)"/><path class="cls-7" d="M224.5,397.43a3.5,3.5,0,1,1-3.07-3.87A3.5,3.5,0,0,1,224.5,397.43Z" transform="translate(-80.69 -224.22)"/><path class="cls-4" d="M241.24,399.39a3.49,3.49,0,1,1-3.06-3.88A3.5,3.5,0,0,1,241.24,399.39Z" transform="translate(-80.69 -224.22)"/><path class="cls-8" d="M258.6,401.42a3.49,3.49,0,1,1-3.07-3.88A3.49,3.49,0,0,1,258.6,401.42Z" transform="translate(-80.69 -224.22)"/><path class="cls-9" d="M191.44,523a90.22,90.22,0,0,0-1.88,20.22c.34,9.16-.75,69.31-.75,69.31h7.35s10.46-47.11,10.85-50.83,5.65-40.93,5.65-40.93Z" transform="translate(-80.69 -224.22)"/><path class="cls-6" d="M196.33,520.27s1.69,12.85,4.56,22,17,70.28,17,70.28h7.35s-1.35-47.11-1.86-50.83-4.23-40.93-4.23-40.93Z" transform="translate(-80.69 -224.22)"/><path class="cls-6" d="M218.5,612.53v5.13h14a.8.8,0,0,0,.44-1.47c-2-1.36-5.32-3.24-8.37-3.66Z" transform="translate(-80.69 -224.22)"/><path class="cls-6" d="M189.18,612.53v5.13h14a.8.8,0,0,0,.45-1.47c-2.05-1.36-5.33-3.24-8.37-3.66Z" transform="translate(-80.69 -224.22)"/><path class="cls-9" d="M214.42,460.48s4.81-7.31-.71-8c-4.24-.55-6,.72-6,.72s-4.88-.54-7.55,1.77c-1.83,1.59-8.55,13.9,2.31,18.36s8.56-6.95,8.56-6.95Z" transform="translate(-80.69 -224.22)"/><path class="cls-10" d="M213.71,452.46c-4.24-.55-6,.72-6,.72s-4.88-.54-7.55,1.77c-1.83,1.59-8.55,13.9,2.31,18.36,5.11,2.09,7.31.68,8.2-1.4-10.31,2.9-11.43-9.53-9.73-13.07s5.87-1.93,5.87-1.93c1.63-4.08,6.91-3.64,9.09-3.32A3,3,0,0,0,213.71,452.46Z" transform="translate(-80.69 -224.22)"/><path class="cls-11" d="M207.65,464s-1.42-1.42-2.49,0-.36,4.63,1.42,4.81c0,0-.53,4.63-4.1,4.46v3.74h8.38V474.2s5.17-2.14,5-6.42a23.61,23.61,0,0,0-1.43-7.3A11.67,11.67,0,0,1,207.65,464Z" transform="translate(-80.69 -224.22)"/><path class="cls-12" d="M208.93,475.39c.83.35.69.87.72,1.66h1.21V474.2s-2,.64-5-1.05A13.23,13.23,0,0,0,208.93,475.39Z" transform="translate(-80.69 -224.22)"/><path class="cls-11" d="M210.65,457.22s-4.34-1.73-4.85-.43c-.33.85.51,1.58,1.67,2.32l-1,.17a.27.27,0,0,0-.13.47,5.77,5.77,0,0,0,2.71.44Z" transform="translate(-80.69 -224.22)"/><polygon class="cls-13" points="104.14 280.07 109.95 298.82 109.85 297.87 109.95 298.82 111.92 271.52 104.14 280.07"/><path class="cls-8" d="M241.64,468.09c-8.27-6.13-30.88-11-30.88-11l-1.86,3.39s20.52,7.95,19.16,9.14c-.79.7-10.82,5.29-14.22,6.84a5.44,5.44,0,0,1-2.33.48l-10.39-.06a16.39,16.39,0,0,0-13.39,5.88c-5.28,6.07-14.24,20.12-14.24,20.12l15.1,22.2,1.67,2.45v.18l1.49.15c4.85.45,20.4,1.68,28.63-.07l.23,0-.39-36.42a141.22,141.22,0,0,0,21.67-21A1.52,1.52,0,0,0,241.64,468.09ZM191,517.76l-1.48-3.22-4.69-10.25,7.79-8.71-1.4,19.13Z" transform="translate(-80.69 -224.22)"/><polygon class="cls-14" points="108.82 290.32 110.3 293.54 109.58 303.25 109.57 303.28 107.9 300.83 108.82 290.32"/><path class="cls-15" d="M216.71,490c-1.4,1-1,10-1.39,15.66-.58,9.43-1.14,17.59-.73,22.85a40.9,40.9,0,0,0,5.79-.73l.23,0-.39-36.42a141.22,141.22,0,0,0,21.67-21,1.52,1.52,0,0,0-.25-2.23A185.47,185.47,0,0,1,216.71,490Z" transform="translate(-80.69 -224.22)"/><path class="cls-9" d="M223.39,561.71c-.37-2.69-2.41-22.81-3.51-33.8l-5.29.58s7.71,63.33,8.21,84h2.45S223.9,565.43,223.39,561.71Z" transform="translate(-80.69 -224.22)"/><path class="cls-6" d="M189.53,465.08l-1.59-2.86a10.66,10.66,0,0,0,1.25-5,10.79,10.79,0,1,0-3.12,7.59Z" transform="translate(-80.69 -224.22)"/><path class="cls-7" d="M172.8,456.21h.42v1.5c0,.46.14.66.46.66s.43-.13.66-.41v-1.75h.42v2.46h-.34l0-.39h0a1.06,1.06,0,0,1-.81.45c-.53,0-.76-.33-.76-1Z" transform="translate(-80.69 -224.22)"/><path class="cls-7" d="M176.51,458.88v.83h-.42v-3.5h.35l0,.28h0a1.29,1.29,0,0,1,.78-.34c.64,0,1,.49,1,1.25s-.51,1.33-1.07,1.33a1.17,1.17,0,0,1-.68-.28Zm.6-.5c.41,0,.71-.37.71-1s-.19-.9-.65-.9a1,1,0,0,0-.66.33v1.29A1,1,0,0,0,177.11,458.38Z" transform="translate(-80.69 -224.22)"/><path class="cls-7" d="M179.34,458.11a1.12,1.12,0,0,0,.73.3c.32,0,.48-.18.48-.39s-.29-.36-.56-.46-.73-.3-.73-.71.31-.7.84-.7a1.21,1.21,0,0,1,.76.28l-.19.26a.92.92,0,0,0-.56-.22c-.31,0-.45.17-.45.36s.26.32.54.42.75.28.75.75-.32.73-.9.73a1.52,1.52,0,0,1-.92-.34Z" transform="translate(-80.69 -224.22)"/><path class="cls-7" d="M182.25,458.09a.31.31,0,0,1,.3.33.3.3,0,0,1-.3.31.3.3,0,0,1-.3-.31A.3.3,0,0,1,182.25,458.09Z" transform="translate(-80.69 -224.22)"/><path class="cls-7" d="M184,458.09a.3.3,0,0,1,.29.33.3.3,0,0,1-.29.31.31.31,0,0,1-.31-.31A.31.31,0,0,1,184,458.09Z" transform="translate(-80.69 -224.22)"/><path class="cls-4" d="M148.19,594.72s-2.26-2.12-.74-10.14,5.37-15.73,3.48-24.44S134.21,529.49,134.16,528s-4.58,25.53,3.09,36.17,8.6,14.32,8.26,19.91.07,10.1.92,11.4Z" transform="translate(-80.69 -224.22)"/><path class="cls-16" d="M146.79,578.58c-.89,3.58-1.43,12.55,0,14.7.14.2.33.09.57-.28-.44-1.49-.72-4.09.1-8.42,1.52-8,5.37-15.73,3.48-24.44S134.21,529.49,134.16,528c0,0,2.23,18.29,9.76,30.87C149.31,567.91,147.68,575,146.79,578.58Z" transform="translate(-80.69 -224.22)"/><path class="cls-4" d="M150.9,594.16s-4.36-10.88,3-20.3,19.19-21.52,19.43-26.31c0,0,3,22.75-6.58,29.19s-16.35,7.47-14.69,17.38Z" transform="translate(-80.69 -224.22)"/><path class="cls-16" d="M161.27,572.17c-10.72,7.8-11.59,16.79-9.93,21a1.06,1.06,0,0,0,.7.62c-1.44-9.56,5.25-10.65,14.74-17s6.58-29.19,6.58-29.19S172,564.37,161.27,572.17Z" transform="translate(-80.69 -224.22)"/><path class="cls-4" d="M143.73,594.4a37.89,37.89,0,0,0,.65-12c-.74-6.22-7.24-9.72-13.31-16.28-3.12-3.38-4-21.26-2.11-22.92,0,0-10.72,13-9.06,22.5S139,581.41,140.65,586a25.54,25.54,0,0,1,1.49,8.45Z" transform="translate(-80.69 -224.22)"/><path class="cls-16" d="M125.34,548.33c-3.54,9.6.09,21.21,11.86,28.43,8.66,5.31,5.9,16.36,5.9,16.36l1.42-4.36a34.24,34.24,0,0,0-.14-6.34c-.74-6.22-7.24-9.72-13.31-16.28-3-3.26-4-20-2.3-22.68A58.8,58.8,0,0,0,125.34,548.33Z" transform="translate(-80.69 -224.22)"/><path class="cls-16" d="M128.77,543.46l.19-.24A1,1,0,0,0,128.77,543.46Z" transform="translate(-80.69 -224.22)"/><path class="cls-4" d="M153.14,593.68s2.51-9.32,8.73-10.57,13.34-10.44,13.73-12.24C175.6,570.87,174.55,588.19,153.14,593.68Z" transform="translate(-80.69 -224.22)"/><path class="cls-16" d="M161.51,586.19c-3.81,1.9-5.39,4.46-5.95,6.79,19.06-6.13,20-22.11,20-22.11a7,7,0,0,1-1,1.82C172.76,576,168.23,582.83,161.51,586.19Z" transform="translate(-80.69 -224.22)"/><path class="cls-8" d="M166.59,590.25h-32.5L138,614.52a3.79,3.79,0,0,0,3.74,3.2H159a3.8,3.8,0,0,0,3.75-3.2Z" transform="translate(-80.69 -224.22)"/><polygon class="cls-17" points="85.26 370.05 85.89 366.03 53.4 366.03 54.04 370.05 85.26 370.05"/><path class="cls-17" d="M158.71,590.25l-3.86,24.27a3.79,3.79,0,0,1-3.74,3.2H159a3.8,3.8,0,0,0,3.75-3.2l3.86-24.27Z" transform="translate(-80.69 -224.22)"/><rect class="cls-8" x="163.16" y="322.75" width="146.86" height="29.86"/><rect class="cls-15" x="163.16" y="322.75" width="146.86" height="7.25"/><polygon class="cls-18" points="175.93 322.75 189.33 322.75 185.74 330 172.33 330 175.93 322.75"/><polygon class="cls-18" points="206.13 322.75 219.53 322.75 215.94 330 202.54 330 206.13 322.75"/><polygon class="cls-18" points="236.33 322.75 249.73 322.75 246.14 330 232.74 330 236.33 322.75"/><polygon class="cls-18" points="266.53 322.75 279.92 322.75 276.33 330 262.93 330 266.53 322.75"/><polygon class="cls-18" points="310.02 322.75 310.02 322.95 306.52 330 293.13 330 296.73 322.75 310.02 322.75"/><rect class="cls-4" x="181.44" y="352.61" width="10.35" height="40.83"/><rect class="cls-16" x="189.44" y="352.61" width="2.35" height="40.83"/><rect class="cls-4" x="282.19" y="352.61" width="10.35" height="40.83"/><rect class="cls-16" x="289.48" y="352.61" width="3.06" height="40.83"/><rect class="cls-16" x="181.44" y="352.58" width="10.35" height="5.14"/><rect class="cls-16" x="282.19" y="352.58" width="10.35" height="5.14"/><rect class="cls-4" x="181.44" y="318.08" width="10.35" height="4.64"/><rect class="cls-16" x="189.44" y="318.08" width="2.35" height="4.64"/><rect class="cls-4" x="282.19" y="318.08" width="10.35" height="4.64"/><rect class="cls-16" x="289.48" y="318.08" width="3.06" height="4.64"/><rect class="cls-16" x="181.44" y="322.14" width="10.35" height="0.58"/><rect class="cls-16" x="282.19" y="322.14" width="10.35" height="0.58"/><polygon class="cls-6" points="189.33 322.75 174.52 352.61 163.16 352.61 163.16 348.49 175.93 322.75 189.33 322.75"/><polygon class="cls-6" points="206.13 322.75 191.32 352.61 204.72 352.61 219.53 322.75 206.13 322.75"/><polygon class="cls-6" points="249.73 322.75 234.92 352.61 221.52 352.61 236.33 322.75 249.73 322.75"/><polygon class="cls-6" points="279.92 322.75 265.12 352.61 251.72 352.61 266.53 322.75 279.92 322.75"/><polygon class="cls-6" points="296.73 322.75 281.92 352.61 295.31 352.61 310.02 322.95 296.73 322.75"/><polygon class="cls-9" points="189.33 322.75 185.74 330 172.33 330 175.93 322.75 189.33 322.75"/><polygon class="cls-9" points="219.53 322.75 215.94 330 202.54 330 206.13 322.75 219.53 322.75"/><polygon class="cls-9" points="249.73 322.75 246.14 330 232.74 330 236.33 322.75 249.73 322.75"/><polygon class="cls-9" points="279.92 322.75 276.33 330 262.93 330 266.53 322.75 279.92 322.75"/><polygon class="cls-9" points="310.02 322.95 306.52 330 293.13 330 296.73 322.75 310.02 322.95"/><rect class="cls-19" x="167.25" y="335.67" width="140.24" height="14.94"/><circle class="cls-8" cx="267.04" cy="535.82" r="9.23" transform="translate(-163.3 -174.37) rotate(-9.24)"/><path class="cls-6" d="M271.22,535.82A4.19,4.19,0,1,0,267,540,4.18,4.18,0,0,0,271.22,535.82Z" transform="translate(-80.69 -224.22)"/><circle class="cls-8" cx="368" cy="535.82" r="9.23" transform="translate(-161.99 -158.15) rotate(-9.24)"/><path class="cls-6" d="M372.18,535.82A4.18,4.18,0,1,0,368,540,4.18,4.18,0,0,0,372.18,535.82Z" transform="translate(-80.69 -224.22)"/><path class="cls-8" d="M446.35,614.5H399.58l7.15-17.35h0l2.88-7,.79-1.92,1.3-3.12.26-.64,2.88-7,.53-1.27,5.1-12.38a2.7,2.7,0,0,1,5,0l5.1,12.38.52,1.27,2.88,7,.27.64,1.29,3.12.79,1.92,2.88,7h0Z" transform="translate(-80.69 -224.22)"/><polygon class="cls-15" points="321.96 382.84 318.89 390.27 365.67 390.27 362.6 382.84 321.96 382.84"/><rect class="cls-4" x="315.15" y="385.83" width="53.57" height="7.57"/><rect class="cls-16" x="357.15" y="385.83" width="11.57" height="7.57"/><path class="cls-15" d="M444.51,610.05H437.9l-5.32-12.89h0l-2.88-7-.79-1.92-1.29-3.12-.26-.64-2.88-7L424,576.2l-4.29-10.42.81-2a2.7,2.7,0,0,1,5,0l5.1,12.38.52,1.28,2.88,7,.27.64,1.29,3.12.79,1.92,2.88,7h0Z" transform="translate(-80.69 -224.22)"/><polygon class="cls-6" points="353.28 360.25 331.27 360.25 334.15 353.25 350.4 353.25 353.28 360.25"/><polygon class="cls-6" points="358.51 372.92 358.51 372.93 326.04 372.93 326.04 372.92 328.92 365.92 355.63 365.92 358.51 372.92"/><polygon class="cls-9" points="353.28 360.25 346.67 360.25 343.79 353.25 350.4 353.25 353.28 360.25"/><polygon class="cls-9" points="358.51 372.92 358.51 372.93 351.89 372.93 351.89 372.92 349.01 365.92 355.63 365.92 358.51 372.92"/><path class="cls-5" d="M148.21,444.43a7,7,0,0,0,7-6,13.28,13.28,0,0,0,.13-1.9,14,14,0,0,0-14-14c-.32,0-.63,0-.94,0a14.83,14.83,0,0,0-29.6,1.25c0,.36,0,.72,0,1.08a14.83,14.83,0,0,0-22,11.88,1,1,0,0,1,0,.17,7.07,7.07,0,0,0,7.08,7.44Z" transform="translate(-80.69 -224.22)"/><path class="cls-5" d="M481.34,455.39c11,0,11.65-16.61.62-17.14l-.9,0a18.51,18.51,0,0,0-5.65.89,18.94,18.94,0,0,0-37.46.6,17.26,17.26,0,0,0-7.53-1.71,17.5,17.5,0,0,0-4.37.55c-9.65,2.48-7.63,16.84,2.34,16.84Z" transform="translate(-80.69 -224.22)"/><path class="cls-5" d="M348.78,373.55c11,0,11.65-16.61.63-17.15l-.91,0a18.44,18.44,0,0,0-5.64.88,18.93,18.93,0,0,0-37.45.6,17.45,17.45,0,0,0-7.54-1.71,17.9,17.9,0,0,0-4.36.55c-9.65,2.49-7.62,16.85,2.34,16.85Z" transform="translate(-80.69 -224.22)"/><circle class="cls-8" cx="92.4" cy="153.56" r="26.45"/><path class="cls-17" d="M173.31,351.34a26.45,26.45,0,0,1-14.5,48.57h-.22a26.45,26.45,0,1,0,14.72-48.56Z" transform="translate(-80.69 -224.22)"/></g></g></svg>