<svg xmlns="http://www.w3.org/2000/svg" xmlns:xlink="http://www.w3.org/1999/xlink" viewBox="0 0 2841.7 2785.05"><defs><style>.cls-1{fill:none;}.cls-2{isolation:isolate;}.cls-3,.cls-5{fill:#f4f7fa;}.cls-36,.cls-4{fill:#d8dee8;}.cls-16,.cls-17,.cls-5{opacity:0.5;}.cls-13,.cls-17,.cls-5{mix-blend-mode:soft-light;}.cls-6{fill:url(#linear-gradient);}.cls-7{fill:url(#linear-gradient-2);}.cls-8{fill:url(#linear-gradient-3);}.cls-9{fill:#26264f;}.cls-10{fill:url(#linear-gradient-4);}.cls-11{fill:#0097e6;}.cls-12,.cls-13{fill:#fff;}.cls-13{opacity:0.48;}.cls-14{fill:url(#linear-gradient-5);}.cls-15{fill:url(#linear-gradient-6);}.cls-18{clip-path:url(#clip-path);}.cls-19{fill:url(#linear-gradient-7);}.cls-20{opacity:0.7;fill:url(#linear-gradient-8);}.cls-20,.cls-34,.cls-36{mix-blend-mode:multiply;}.cls-21{fill:url(#linear-gradient-9);}.cls-22{fill:url(#linear-gradient-10);}.cls-23{fill:url(#linear-gradient-11);}.cls-24{fill:url(#linear-gradient-12);}.cls-25{fill:url(#linear-gradient-13);}.cls-26{clip-path:url(#clip-path-2);}.cls-27{fill:url(#linear-gradient-14);}.cls-28{fill:url(#linear-gradient-15);}.cls-29{fill:url(#linear-gradient-16);}.cls-30{fill:url(#linear-gradient-17);}.cls-31{fill:url(#linear-gradient-18);}.cls-32{fill:url(#linear-gradient-19);}.cls-33{fill:url(#linear-gradient-20);}.cls-34{opacity:0.3;}.cls-35{fill:url(#linear-gradient-21);}.cls-37{fill:url(#linear-gradient-22);}.cls-38{clip-path:url(#clip-path-3);}.cls-39{fill:url(#linear-gradient-23);}.cls-40{fill:url(#linear-gradient-24);}.cls-41{fill:url(#linear-gradient-25);}.cls-42{fill:url(#linear-gradient-26);}.cls-43{fill:url(#linear-gradient-27);}.cls-44{fill:url(#linear-gradient-28);}.cls-45{fill:url(#linear-gradient-29);}.cls-46{fill:url(#linear-gradient-30);}</style><linearGradient id="linear-gradient" x1="1213.77" y1="1858.42" x2="2557.21" y2="1858.42" gradientUnits="userSpaceOnUse"><stop offset="0" stop-color="#ffc444"/><stop offset="1" stop-color="#f36f56"/></linearGradient><linearGradient id="linear-gradient-2" x1="2202.39" y1="2145.78" x2="3658.43" y2="2145.78" gradientTransform="translate(-284.7 -59.68) rotate(3.95)" gradientUnits="userSpaceOnUse"><stop offset="0" stop-color="#ff9085"/><stop offset="1" stop-color="#fb6fbb"/></linearGradient><linearGradient id="linear-gradient-3" x1="2286.65" y1="2064.88" x2="1436.31" y2="3007.51" gradientTransform="matrix(0.98, -0.19, 0.19, 0.98, 328.36, 373.18)" xlink:href="#linear-gradient"/><linearGradient id="linear-gradient-4" x1="515.86" y1="2273.68" x2="2340.02" y2="2273.68" gradientUnits="userSpaceOnUse"><stop offset="0" stop-color="#444b8c"/><stop offset="1" stop-color="#26264f"/></linearGradient><linearGradient id="linear-gradient-5" x1="515.86" y1="2975.07" x2="3263.89" y2="2975.07" xlink:href="#linear-gradient-4"/><linearGradient id="linear-gradient-6" x1="1838.66" y1="1129.12" x2="3051.62" y2="1129.12" gradientUnits="userSpaceOnUse"><stop offset="0" stop-color="#fff"/><stop offset="1" stop-color="#ebeff2"/></linearGradient><clipPath id="clip-path" transform="translate(-434.15 -463.45)"><polygon class="cls-1" points="2940.69 1554.8 1959.77 1568.97 1959.77 553.87 2940.69 581.75 2940.69 1554.8"/></clipPath><linearGradient id="linear-gradient-7" x1="2743.67" y1="683.25" x2="2510.73" y2="1139.43" gradientUnits="userSpaceOnUse"><stop offset="0" stop-color="#ab316d"/><stop offset="1" stop-color="#792d3d"/></linearGradient><linearGradient id="linear-gradient-8" x1="2749.23" y1="674.48" x2="2513.93" y2="1135.26" xlink:href="#linear-gradient-7"/><linearGradient id="linear-gradient-9" x1="2443.96" y1="1462.4" x2="2427.62" y2="1107.7" xlink:href="#linear-gradient"/><linearGradient id="linear-gradient-10" x1="2426.51" y1="1150.52" x2="2432.77" y2="910.79" xlink:href="#linear-gradient"/><linearGradient id="linear-gradient-11" x1="2328.16" y1="1125.33" x2="2333.93" y2="904.53" xlink:href="#linear-gradient"/><linearGradient id="linear-gradient-12" x1="2522.13" y1="1130.99" x2="2527.81" y2="913.66" xlink:href="#linear-gradient"/><linearGradient id="linear-gradient-13" x1="1884.89" y1="2321.31" x2="2880.61" y2="2321.31" xlink:href="#linear-gradient-6"/><clipPath id="clip-path-2" transform="translate(-434.15 -463.45)"><polygon class="cls-1" points="2787.09 2639.27 1984.2 2689.04 1984.2 1841.63 2787.09 1820.69 2787.09 2639.27"/></clipPath><linearGradient id="linear-gradient-14" x1="2329.76" y1="1845.88" x2="2418.01" y2="3252.76" gradientUnits="userSpaceOnUse"><stop offset="0" stop-color="#f36f56"/><stop offset="1" stop-color="#ffc444"/></linearGradient><linearGradient id="linear-gradient-15" x1="2386.77" y1="2487.03" x2="2383.92" y2="2312.68" gradientUnits="userSpaceOnUse"><stop offset="0" stop-color="#311944"/><stop offset="1" stop-color="#893976"/></linearGradient><linearGradient id="linear-gradient-16" x1="2388.2" y1="2503.25" x2="2387.28" y2="2356.27" xlink:href="#linear-gradient-7"/><linearGradient id="linear-gradient-17" x1="2375.86" y1="2292.6" x2="2400.22" y2="1999.29" xlink:href="#linear-gradient-7"/><linearGradient id="linear-gradient-18" x1="2293.56" y1="2287.99" x2="2317.61" y2="1998.57" xlink:href="#linear-gradient-7"/><linearGradient id="linear-gradient-19" x1="2469.89" y1="2296.25" x2="2494.23" y2="2003.19" xlink:href="#linear-gradient-7"/><linearGradient id="linear-gradient-20" x1="2369.65" y1="2152.33" x2="2434.65" y2="1950.74" gradientUnits="userSpaceOnUse"><stop offset="0" stop-color="#311944"/><stop offset="1" stop-color="#6b3976"/></linearGradient><linearGradient id="linear-gradient-21" x1="2369.83" y1="2151.76" x2="2435.31" y2="1948.68" xlink:href="#linear-gradient-20"/><linearGradient id="linear-gradient-22" x1="662.24" y1="1724.57" x2="2194.15" y2="1724.57" xlink:href="#linear-gradient-6"/><clipPath id="clip-path-3" transform="translate(-434.15 -463.45)"><polygon class="cls-1" points="2050.53 2200.57 818.26 2251.76 818.26 1090.67 2050.53 1097.41 2050.53 2200.57"/></clipPath><linearGradient id="linear-gradient-23" x1="1893.71" y1="1216.57" x2="1242.88" y2="2497.69" gradientTransform="matrix(1, 0, 0, 1, 0, 0)" xlink:href="#linear-gradient-2"/><linearGradient id="linear-gradient-24" x1="1434.43" y1="2163.61" x2="1445.23" y2="1574.19" gradientUnits="userSpaceOnUse"><stop offset="0" stop-color="#311944"/><stop offset="0.56" stop-color="#6f2b60"/><stop offset="1" stop-color="#a03976"/></linearGradient><linearGradient id="linear-gradient-25" x1="1451.99" y1="1770.58" x2="1492.81" y2="2035.92" xlink:href="#linear-gradient"/><linearGradient id="linear-gradient-26" x1="1432.66" y1="1363.2" x2="1422.41" y2="2039.62" xlink:href="#linear-gradient"/><linearGradient id="linear-gradient-27" x1="1427.15" y1="1407.52" x2="1416.88" y2="2085.34" gradientTransform="translate(-309.56 89.97) rotate(-6.51)" xlink:href="#linear-gradient"/><linearGradient id="linear-gradient-28" x1="1573.58" y1="1364.36" x2="1563.35" y2="2039.4" xlink:href="#linear-gradient"/><linearGradient id="linear-gradient-29" x1="1466.55" y1="1233.19" x2="1437.28" y2="1485.84" xlink:href="#linear-gradient"/><linearGradient id="linear-gradient-30" x1="-3850.79" y1="914.37" x2="-3282.66" y2="1662.57" gradientTransform="translate(4428.12)" gradientUnits="userSpaceOnUse"><stop offset="0" stop-color="#aa80f9"/><stop offset="1" stop-color="#6165d7"/></linearGradient></defs><g class="cls-2"><g id="Illustration"><path class="cls-3" d="M3010.94,2640.4c-574.53,734.89-1920,746.69-2292.48,338.48-148.65-162.89-187.9-442.66-245.6-853.62-27.77-197.83-31.75-357.29-34.11-466.7-8.13-372.16-12.18-558.26,47.73-684.86,171.61-362.41,767.75-503.45,1153.07-510q40.35-.69,81.39.54c451.18,13.44,960.3,201.26,1274.3,602.6A1343.62,1343.62,0,0,1,3086,1198C3372.61,1669.25,3324.38,2239.53,3010.94,2640.4Z" transform="translate(-434.15 -463.45)"/><path class="cls-4" d="M1890.9,3003.27c-123.46-22.51-154-287.64-157.89-325.35-9.7-94.39-21.73-211.38,46.53-310.36,98.67-143.07,266.67-105.8,306.76-224.6,24.63-73-36-95.44-38.86-235-.82-40.07-3.78-184.69,97.36-301.61,72.12-83.36,163.79-114,212.27-125.94,15.8-39.94,34.18-100.51,33.75-174.39-.68-118.53-49.14-164.28-24-227.13,28.82-72,131.54-109.64,209.71-108.91,208.23,1.94,322.33,276.66,330.15,296.2,20.19,50.5,84.18,210.49,11,326.93-57.85,92-156.13,84.91-171.12,160.53-15,75.45,78.47,104.83,100.56,220,18.87,98.34-22.64,215.61-96.09,281.64-122.7,110.31-272.89,22.22-338.58,113.61-76.48,106.4,77.82,294.32,9.58,357.73-64.78,60.19-234.15-80.93-316.67-10.64-59.65,50.81-4.33,152.82-84.78,234.47C2015.71,2955.32,1955.34,3015,1890.9,3003.27Z" transform="translate(-434.15 -463.45)"/><path class="cls-5" d="M2539.43,1032.49c79.11,18.25,115.72,256.53,73.92,460.55-28.78,140.48-69.83,143.1-175.26,380.91-142.87,322.29-89.79,367.77-193.68,480.39-142.56,154.53-288.77,119-367.23,267.67-53.1,100.61-37.74,214.68-14.69,298.52-29.45-45.2-75.21-128.84-88-242.08-8.31-73.76-23.35-207.16,53.4-288.36,92.09-97.43,227.74-25.94,290.94-116.52,35.83-51.35,3.63-90.66-4.66-266-8.36-176.91-12.54-265.36,35.34-340.84,85.42-134.65,239-79.75,291.58-196.57,54.5-121.11-83.88-239.44-11.9-362.15C2452.44,1068.4,2500.39,1023.49,2539.43,1032.49Z" transform="translate(-434.15 -463.45)"/><path class="cls-6" d="M2376,2971.29c135.25-24.65,168.72-315.09,173-356.4,10.62-103.4,23.8-231.55-51-340-108.09-156.73-292.12-115.91-336-246-27-80,39.43-104.54,42.56-257.46.9-43.89,4.15-202.32-106.65-330.39-79-91.33-179.42-124.94-232.53-138-17.31-43.76-37.44-110.11-37-191,.75-129.85,53.84-180,26.3-248.81-31.57-78.9-144.1-120.11-229.74-119.31-228.1,2.13-353.09,303.07-361.65,324.48-22.12,55.32-92.21,230.58-12,358.13,63.37,100.76,171,93,187.45,175.85,16.38,82.66-86,114.84-110.16,241-20.66,107.73,24.8,236.19,105.27,308.53,134.41,120.83,298.93,24.34,370.89,124.45,83.79,116.55-85.24,322.42-10.49,391.88,71,65.94,256.5-88.65,346.9-11.65,65.34,55.66,4.74,167.4,92.87,256.84C2239.27,2918.76,2305.4,2984.16,2376,2971.29Z" transform="translate(-434.15 -463.45)"/><path class="cls-5" d="M1665.56,812.4c-86.66,20-126.77,281-81,504.51,31.53,153.89,76.49,156.76,192,417.27,156.52,353,98.36,402.88,212.17,526.24,156.17,169.29,316.34,130.38,402.28,293.22,58.17,110.21,41.34,235.18,16.09,327,32.26-49.5,82.4-141.13,96.37-265.17,9.11-80.81,25.58-226.95-58.49-315.89-100.88-106.73-249.48-28.42-318.71-127.65-39.26-56.25-4-99.31,5.1-291.43,9.16-193.79,13.74-290.69-38.72-373.37-93.57-147.5-261.83-87.37-319.41-215.34-59.69-132.66,91.89-262.29,13-396.72C1760.86,851.74,1708.33,802.54,1665.56,812.4Z" transform="translate(-434.15 -463.45)"/><path class="cls-7" d="M1833.05,3018.7c-73.87-12.7-114.69-194.72-98.87-335.9,6.13-54.62,12.21-109,52-158.45,67.07-83.54,144.59-46.93,203.59-114.3,87.11-99.49-21.28-248.58,62.56-329.47,61.68-59.5,139.87,2.33,213.48-62.15,85.38-74.8,33.37-204.6,106.84-237.63,42.67-19.19,71.46,19.56,187,11.41,45.21-3.19,67.81-4.79,88.49-17.25,72.5-43.7,37.46-142.57,95.46-203.15,63.85-66.69,202.14-47,284.4-10.15,147.38,66,213.71,231.27,216,362.71.48,28.16.71,211.55-130.76,308.66-95.61,70.61-224.14,68.49-245,68.15-81.22-1.34-97.49-24.92-126.32-7.87-83.34,49.29,32.93,257.89-73.56,391-43.49,54.33-117.56,87.9-183.27,90.91-106.22,4.86-152-71.9-208.42-45.56-73,34.08-28.85,177.69-108.91,220-56.64,29.94-100.16-30.64-195.67-5.39C1887.25,2966.64,1876.79,3026.21,1833.05,3018.7Z" transform="translate(-434.15 -463.45)"/><path class="cls-5" d="M1837.21,2885.5c33.7,8.35,51.64-83.18,166.66-203.35,125.6-131.22,193.12-115,310-233,133.47-134.77,71.88-182.61,183.73-287,151.58-141.44,280.43-68.22,462.73-233.82,54.69-49.67,127.48-117.71,115.63-201.2-10.27-72.39-82.83-146.91-165.11-147.06-3.45,0-72.64,1-116.8,54.13-54.18,65.25-7.58,133.1-57.82,182.58-26.31,25.92-67.34,28.92-149.39,34.93-118,8.64-137.68-16.32-170,5.24-72.95,48.73,0,194.5-74.1,254.95-63.61,51.9-155.18-24.7-210.91,25-67.25,60,37.5,197.14-31.81,297.43-59.67,86.35-171.24,33.78-251.64,124C1753.51,2664.91,1788.58,2873.45,1837.21,2885.5Z" transform="translate(-434.15 -463.45)"/><path class="cls-8" d="M2264.55,2942.91c56.1,3.91,63.71-99.17,161.68-130,108.37-34.14,177.15,67.38,252.65,28.59,84.83-43.59,37-191.85,132.32-247.49,65.08-38,110.4,17.73,192.25-17.16,85.32-36.36,168.6-153.41,135.84-268.21-27.33-95.77-125.87-156.48-205.18-157.06-64.87-.47-83.3,39.54-140,27.75-70.7-14.69-69-82.4-143.09-112.89-73.7-30.33-174.46-4.09-229.91,56.1-46.11,50.06-50.82,112.65-54.92,167.25-11,146.56,55.88,203,20.15,259.35-44.58,70.27-166.7,10.7-222.37,80.38C2094.27,2716.68,2183.85,2937.28,2264.55,2942.91Z" transform="translate(-434.15 -463.45)"/><path class="cls-5" d="M2237.33,2835.09c20.52,4.08,26.57-62.7,91.1-118.47,74-63.94,129.67-31.15,212.44-81.64,102.56-62.56,63.58-141.28,154.89-204.75,128-89,287,8.41,330-64.23,25.11-42.44-3.08-119.79-48.37-145C2929,2194,2894.8,2245.14,2811.84,2233c-77.71-11.34-82.07-61.2-178-86.25-46.74-12.21-108.15-28.24-147.38,1.83-76.87,58.92-35.15,269.22-22.41,333.42,11.72,59.05,22.58,82,7.21,106-40.27,63-173.83-2-235.62,66C2184,2711,2210.81,2829.8,2237.33,2835.09Z" transform="translate(-434.15 -463.45)"/><path class="cls-9" d="M3263.89,2955.09l-2748-23.43V3001c0,18.81,12,34.81,28.22,37.66l777.06,136.48a109,109,0,0,0,27.88,1.28l1885-155.61c16.83-1.39,29.87-17.43,29.87-36.76Z" transform="translate(-434.15 -463.45)"/><path class="cls-9" d="M2266.64,2844,544.28,2970.81c-30.82,2.27-55.88-21.84-55.88-53.85V1634.37c0-32,25.06-58,55.88-58H2266.64c25.39,0,45.92,23.46,45.92,52.4V2788.24C2312.56,2817.18,2292,2842.15,2266.64,2844Z" transform="translate(-434.15 -463.45)"/><path class="cls-10" d="M2294.1,2844,571.74,2970.81c-30.82,2.27-55.88-21.84-55.88-53.85V1634.37c0-32,25.06-58,55.88-58H2294.1c25.39,0,45.92,23.46,45.92,52.4V2788.24C2340,2817.18,2319.49,2842.15,2294.1,2844Z" transform="translate(-434.15 -463.45)"/><path class="cls-11" d="M2240.44,2762.28,636.25,2872.41c-25.08,1.72-45.47-18.06-45.47-44.2V1705.3c0-26.13,20.39-47.41,45.47-47.52l1604.19-6.91c20.95-.09,37.89,19.13,37.89,42.94V2716.58C2278.33,2740.38,2261.39,2760.84,2240.44,2762.28Z" transform="translate(-434.15 -463.45)"/><path class="cls-12" d="M1493.75,1611.48c0,11.92-8.86,21.61-19.81,21.64s-19.86-9.62-19.86-21.56,8.9-21.64,19.86-21.64S1493.75,1599.56,1493.75,1611.48Z" transform="translate(-434.15 -463.45)"/><path class="cls-13" d="M571.74,2970.81l1713.64-126.15,8.72-.64c11.65-.86,22.25-6.62,30.34-15.35-123.32-6.75-199.91-50.51-249.32-95.73-99.22-90.81-82-180.36-189-240.06-133.46-74.47-238.4,19.89-339.67-73.21-61.4-56.45-31.26-98.54-106.81-182.89-83.67-93.42-138.15-62-222.24-146.1-106.33-106.32-53.15-189-144.74-265.37-111.11-92.6-230.94-6.89-336.71-95.7-45.62-38.3-70.65-94-83.72-153.21H571.74c-30.82,0-55.88,25.95-55.88,58V2917C515.86,2949,540.92,2973.07,571.74,2970.81Z" transform="translate(-434.15 -463.45)"/><path class="cls-14" d="M2362.75,2837,515.86,2970.45l805.28,141.43a109,109,0,0,0,27.88,1.28l1914.87-158.07-871.76-117.2A142.91,142.91,0,0,0,2362.75,2837Z" transform="translate(-434.15 -463.45)"/><polygon class="cls-9" points="351.2 2508.14 1888.79 2395.38 2364.66 2458.84 840.32 2579.38 351.2 2508.14"/><path class="cls-12" d="M3069.85,711v838.71c0,38.68-26.32,70.69-59.41,71.48l-275.69,6.74-850.35,20.8c-34.58.84-66.78-27.3-70.63-64.37-.31-2.82-4.11-5.66-4.11-8.57V682.21c0-15.09,7.78-29,14.76-40.55.2-.32,2.23-.6,2.42-.9,12.16-19.47,33.56-31.89,56.75-31.26l129,3.42,997.63,26.46C3043.31,640.26,3069.85,672.31,3069.85,711Z" transform="translate(-434.15 -463.45)"/><path class="cls-15" d="M1884.52,1625c-25.26.59-45.86-21.69-45.86-49.66V682.83c0-28,20.6-50.21,45.86-49.57l1126.34,28.57c22.5.57,40.76,22.44,40.76,48.75V1550.1c0,26.32-18.26,48.15-40.76,48.67Z" transform="translate(-434.15 -463.45)"/><path class="cls-4" d="M3010.86,639.39,1884.52,609.51c-37.2-1-67.45,31.62-67.45,72.82v53.52l1253.61,25.41V711C3070.68,672.34,3043.94,640.27,3010.86,639.39Z" transform="translate(-434.15 -463.45)"/><path class="cls-12" d="M1937.08,675.84a21.49,21.49,0,0,1-21.92,21.73,22.7,22.7,0,0,1-22-22.75,21.48,21.48,0,0,1,22-21.74A22.74,22.74,0,0,1,1937.08,675.84Z" transform="translate(-434.15 -463.45)"/><path class="cls-12" d="M2013.66,677.63a21.36,21.36,0,0,1-21.75,21.65,22.6,22.6,0,0,1-21.79-22.67A21.35,21.35,0,0,1,1991.91,655,22.6,22.6,0,0,1,2013.66,677.63Z" transform="translate(-434.15 -463.45)"/><path class="cls-12" d="M2089.67,679.4A21.24,21.24,0,0,1,2068.09,701c-11.94-.26-21.63-10.37-21.63-22.58a21.23,21.23,0,0,1,21.63-21.57C2080,657.11,2089.67,667.22,2089.67,679.4Z" transform="translate(-434.15 -463.45)"/><polygon class="cls-4" points="2566.72 1088.05 1461.55 1111.04 1461.55 408.13 2566.72 423.25 2566.72 1088.05"/><g class="cls-16"><polygon class="cls-12" points="2052.48 345.54 1461.55 335.34 1461.55 373.31 2052.48 382.4 2052.48 345.54"/><polygon class="cls-12" points="2502.91 353.31 2502.91 389.34 2566.72 390.32 2566.72 354.41 2502.91 353.31"/></g><g class="cls-17"><path class="cls-12" d="M2741.94,1627.94l-850.44,20.8c-34.58.84-67-27.29-70.9-64.37,0-.82-4-1.6-4-2.43V681.81c0-14.91,7.82-28.64,14.55-40.15.2-.33,2.33-.6,2.53-.91,12.09-20,33.77-32.81,57.22-32.18l128.3,3.41c.09.31.44.63.54.94,2.39,7.82,5.14,15.75,8,23.8a515.17,515.17,0,0,0,47,98.29c1.25,2,2.54,4,3.83,6a421.74,421.74,0,0,0,47.61,61.65,391.79,391.79,0,0,0,41.19,38.17,432.35,432.35,0,0,0,50.89,35.08c124.87,74.08,265.1,83.76,358.13,232.29,79.73,127.31,22.62,194.11,99.73,388.87q12.57,31.77,26.94,60.76,12.18,24.78,25.45,47.67C2732.91,1613.14,2737.41,1620.63,2741.94,1627.94Z" transform="translate(-434.15 -463.45)"/></g><g class="cls-18"><path class="cls-19" d="M2291.94,1544.72c-191.87-29.55-234.6-51.36-254.41-92.08-28.84-59.24-7.86-155.65,41.37-215,43-51.85,96.55-61.93,95-97.8-1.28-29.51-37.94-33.47-64.93-89.2-7.88-16.28-23.19-47.91-16.52-85.79,9.76-55.43,59.43-83.89,63.45-86.12,51.75-28.58,81.18,5.58,120-20.1,48.4-32,26.48-101.33,71.77-120.38,32.88-13.84,74.79,10,85.7,16.2,36.36,20.66,32.54,40.82,63.18,53.74,35.86,15.13,53-7.57,94.47,2.35,34.2,8.17,58.91,33.4,79,58.68,45.14,56.7,22.72,89.74,56,159.22,46.74,97.53,117,86.69,129.47,164.42,6.5,40.63-10.19,59.06,2.63,121.28,8.65,42,19.52,49.45,21.45,74.14,5.55,71-74.67,134.19-89.69,145.34C2694,1604.88,2560.19,1586,2291.94,1544.72Z" transform="translate(-434.15 -463.45)"/><path class="cls-20" d="M2597.06,1352.56c-125.58-8.78-211.11,111.09-245.16,81.69-32.33-27.92,58.81-123.48,27.74-234.46-30.57-109.17-151-132.66-141.5-194.36,10.81-69.75,171.87-85.81,168.1-137-2.22-30.24-59-37.57-70.37-85.83-3.09-13.11-2.06-26,1.17-38.06-31.34,24.91-17.09,85-61.18,114.15-38.79,25.68-68.22-8.48-120,20.1-4,2.23-53.69,30.69-63.45,86.12-6.67,37.88,8.64,69.51,16.52,85.79,27,55.73,63.65,59.69,64.93,89.2,1.56,35.87-51.95,46-95,97.8-49.23,59.33-70.21,155.74-41.37,215,19.81,40.72,62.54,62.53,254.41,92.08,268.25,41.32,402,60.16,498-11.08,37-27.49,80.56-74.1,89.89-115.28-18.62,17.68-36.9,26.36-54,29.72C2746.12,1463.75,2709.15,1360.41,2597.06,1352.56Z" transform="translate(-434.15 -463.45)"/><path class="cls-11" d="M2077.93,1803.59c-29.09-72.93-11.35-188.12-7.61-212.38,14.57-94.61,48.87-153.31,61.35-174.15,85.37-142.53,214.5-141.47,311.36-140.68,47.74.38,97.09-.69,157.27,21.54,0,0,47.49,17.55,87.58,46.8,119.36,87.12,213.27,372.34,117.33,481.81-61.33,70-124.37-17.08-399.76,29.56C2294,1875,2176.1,1905.8,2105.81,1844.91,2094.17,1834.82,2085,1821.33,2077.93,1803.59Z" transform="translate(-434.15 -463.45)"/><path class="cls-21" d="M2392.26,1105.53s20.42,152.75-83.34,183.28c-12,3.54-15.7,19.39-6.61,28.24l127.87,124.33a18.33,18.33,0,0,0,26.92-1.39l114.58-133.42c7.47-8.71,4.2-22.54-6.26-26.56-36.67-14.09-102.59-55.3-88.74-166.7Z" transform="translate(-434.15 -463.45)"/><path class="cls-22" d="M2328.67,1020.17c0,1.68,28,151.21,99.6,151.38,67.41.16,92.92-108.94,101.21-159.84l2.64-26a49.38,49.38,0,0,1-29.44.59c-3.08-.91-22.59-6.66-29.85-23.6-8.09-18.88,6.78-33.64-1.69-50.16-4.91-9.59-14.81-14.19-22.37-16.58,5,7.79,14.8,25.14,9.28,40.72-3.71,10.47-14.1,20.42-37.31,26.3C2354.1,979.88,2328,986.31,2328.67,1020.17Z" transform="translate(-434.15 -463.45)"/><path class="cls-23" d="M2346.25,1038.19s-37.1-33-40.34-13c-6.76,41.62,25,64.81,42.21,52.48S2346.25,1038.19,2346.25,1038.19Z" transform="translate(-434.15 -463.45)"/><path class="cls-24" d="M2508.4,1039.5s36.46-32,39.64-12.22c6.61,41.28-24.54,63.85-41.48,51.4S2508.4,1039.5,2508.4,1039.5Z" transform="translate(-434.15 -463.45)"/></g><path class="cls-12" d="M2320.63,1489.06c0,21.83-17,39.75-38.08,40s-38.21-17.25-38.21-39.15,17.12-39.82,38.21-40S2320.63,1467.23,2320.63,1489.06Z" transform="translate(-434.15 -463.45)"/><path class="cls-12" d="M2497.57,1487.06c0,21.66-16.77,39.44-37.5,39.71s-37.63-17.13-37.63-38.86,16.86-39.51,37.63-39.71S2497.57,1465.4,2497.57,1487.06Z" transform="translate(-434.15 -463.45)"/><path class="cls-12" d="M2671.84,1485.09c0,21.5-16.52,39.14-36.94,39.4s-37.06-17-37.06-38.57,16.61-39.21,37.06-39.41S2671.84,1463.59,2671.84,1485.09Z" transform="translate(-434.15 -463.45)"/><path class="cls-12" d="M2895.31,1941.2v689.86c0,31.84-21.61,59.27-49,61.23l-227.5,16.27-.25,0-696.34,49.78a49.2,49.2,0,0,1-13.34-.84c-.8-.14-1.57-.35-2.37-.52-1.54-.42-3.08-.87-4.58-1.4s-3-1.15-4.43-1.85a52.45,52.45,0,0,1-6.25-3.52c-1.32-.88-2.62-1.82-3.84-2.8s-2.48-2.05-3.63-3.17a58,58,0,0,1-17-35.85c-.25-2.27-1.23-4.65-1.23-7V1973.35c0-.66,0-1.29,0-1.95s.1-1.5.14-2.27c.91-10.58,4.75-20.46,9.74-29,.14-.28.73-.53.91-.77,8-13.28,20.58-23,35.07-26.5a52.46,52.46,0,0,1,5.17-1,45.71,45.71,0,0,1,5.38-.3l104.79-2.77h.07l226.18-6.65,593.23-17a16.31,16.31,0,0,1,1.85,0c.73,0,1.46,0,2.2,0s1.43.1,2.13.17C2876.81,1888.19,2895.31,1911.81,2895.31,1941.2Z" transform="translate(-434.15 -463.45)"/><path class="cls-25" d="M1922.19,2739c-20.55,1.45-37.3-15.91-37.3-38.71V1973.19c0-22.79,16.75-41.82,37.3-42.43l924.66-27.24c18.63-.55,33.76,16.61,33.76,38.25v690.52c0,21.64-15.13,40.31-33.76,41.63Z" transform="translate(-434.15 -463.45)"/><path class="cls-4" d="M2846.85,1885.07l-924.66,26.34c-30.25.86-54.85,28.77-54.85,62.34v43.59l1029.07-34.74v-41.32C2896.41,1909.46,2874.25,1884.29,2846.85,1885.07Z" transform="translate(-434.15 -463.45)"/><path class="cls-12" d="M1965,1963.13a18.69,18.69,0,0,1-17.85,18.69,17.33,17.33,0,0,1-17.87-17.57,18.7,18.7,0,0,1,17.87-18.7A17.35,17.35,0,0,1,1965,1963.13Z" transform="translate(-434.15 -463.45)"/><path class="cls-12" d="M2027.38,1961.19a18.61,18.61,0,0,1-17.73,18.63,17.26,17.26,0,0,1-17.76-17.53,18.61,18.61,0,0,1,17.76-18.63A17.26,17.26,0,0,1,2027.38,1961.19Z" transform="translate(-434.15 -463.45)"/><path class="cls-12" d="M2089.39,1959.25a18.51,18.51,0,0,1-17.61,18.57,17.17,17.17,0,0,1-17.65-17.47,18.52,18.52,0,0,1,17.65-18.57A17.18,17.18,0,0,1,2089.39,1959.25Z" transform="translate(-434.15 -463.45)"/><polygon class="cls-4" points="2404.43 2171.99 1497.14 2233.99 1497.14 1661.07 2404.43 1625.41 2404.43 2171.99"/><g class="cls-16"><polygon class="cls-12" points="1980.3 1584.2 1497.14 1601.73 1497.14 1632.68 1980.3 1614.39 1980.3 1584.2"/><polygon class="cls-12" points="2351.61 1570.72 2351.61 1600.33 2404.43 1598.33 2404.43 1568.81 2351.61 1570.72"/></g><g class="cls-17"><path class="cls-12" d="M2618.83,2708.63l-696.62,49.74a49.2,49.2,0,0,1-13.34-.84c-.8-.14-1.57-.35-2.37-.52-1.54-.42-3.08-.87-4.58-1.4s-3-1.15-4.43-1.85a52.45,52.45,0,0,1-6.25-3.52c-1.32-.88-2.62-1.82-3.84-2.8s-2.48-2.05-3.63-3.17a57.68,57.68,0,0,1-17.14-35.82c0-.66-1.12-1.36-1.12-2V1973.35c0-.66,0-1.29,0-1.95s.1-1.5.14-2.27c.84-10.58,4.71-20.42,9.56-29,.14-.28.84-.53,1-.77,9.84-16.83,27-28.21,46-28.77l103.9-2.93c.07.25-.05.49-.05.73v0c3.49,6.28,4.49,12.6,6.83,19a393.37,393.37,0,0,0,38.47,78.13c1,1.6,2.16,3.18,3.2,4.75a318,318,0,0,0,38.9,48.21,293.43,293.43,0,0,0,33.68,29.39,322.52,322.52,0,0,0,41.58,26.42,0,0,0,0,0,0,0c21,11.34,42.56,20.42,64.2,28.73,83.68,32.11,168.79,52.53,229.53,146,58,89.22,28,144.21,64.05,263.73,3.77,12.5,8.24,25.73,13.65,39.76q2.1,5.51,4.4,11.21c6.88,17,14.31,33.26,22.17,48.76q10,19.85,21,38.12c3.63,6.08,7.29,12,11,17.81C2618.8,2708.59,2618.83,2708.59,2618.83,2708.63Z" transform="translate(-434.15 -463.45)"/></g><g class="cls-26"><path class="cls-27" d="M2047.32,2859.29c-28-72.95,11.5-198.08,36.31-255.08,72-165.41,203.15-177.63,309.58-187.54,103.61-9.65,202.75-18.88,274.76,98.38,46.81,76.21,89.68,218,61.1,296.9-30.12,83.17-114.2,26.24-316.65,39.34C2185.58,2866,2082.18,2950.13,2047.32,2859.29Z" transform="translate(-434.15 -463.45)"/><path class="cls-28" d="M2491,2428.36c0,20-46.74,46.54-104.65,49.67-58.21,3.14-105.61-18.52-105.61-38.71s47.4-13.61,105.61-16.62C2444.29,2419.71,2491,2408.36,2491,2428.36Z" transform="translate(-434.15 -463.45)"/><path class="cls-29" d="M2347.66,2295.42c-16,.74,21,116.21-37.39,135.32-5.66,1.85-6.58,9.8-1.44,12.43,15.7,8,45,17.64,93,15.09a120.11,120.11,0,0,0,65.46-23.93c4-3,3.61-9.29-.69-11.39-17.8-8.67-42.57-38-35.17-128.39Z" transform="translate(-434.15 -463.45)"/><path class="cls-30" d="M2298.83,2156.76c.24,1.47,5.11,108.52,28.68,161,6.76,15,40.23,11.6,61.83,8.73,18.74-2.49,48,3.24,56.28-10.61,33.07-55.61,27.47-189.26,27.47-189.26s-16.94-43.92-86.66-40.11C2316.29,2090.32,2298.83,2156.76,2298.83,2156.76Z" transform="translate(-434.15 -463.45)"/><path class="cls-31" d="M2315.31,2213.68s-14.73-17.17-28.63-19-23,36-4,59.51,40.83,2.34,40.83,2.34Z" transform="translate(-434.15 -463.45)"/><path class="cls-32" d="M2457.86,2207.62s14.53-18.27,28.2-21.2,22.55,33.74,3.93,58.65-40.25,5.9-40.25,5.9Z" transform="translate(-434.15 -463.45)"/><path class="cls-33" d="M2303.78,2212.83c1.85,3.46,4,6.66,5.41,6.21,5.95-1.87-17-61.19,4.14-83.13,10.92-11.33,23.21-1.88,67.8-5.72s56.15-15.45,69.62-7.43c12.27,7.29,23.23,29,14.15,95.12l7.58-2.15c-3.4-21.38.31-35.11,4.56-43.84,3.1-6.37,8.7-14.64,8.27-26.25-.27-7.19-2.55-7.42-2.93-13.31-1.1-17.25,17.74-22.62,18.65-39.73.69-13.17-10.13-15.76-8.15-29.57,1.68-11.75,10.13-14.23,8.8-22.63-1.45-9.05-12.77-15.44-20.73-17.53-8.12-2.13-11.06.65-15.82-2.63-7.71-5.29-4-15.29-9.58-18.76-9.92-6.19-29.68,20.55-42.46,14.49-7.75-3.67-4.77-15.51-11.63-18.13-13.27-5.07-36.76,34.53-46.22,29.7-4.53-2.31-.16-11.92-6.52-18.67-7.47-7.94-25.42-7.32-33.61,1.62-7.65,8.35-1.16,17.78-9.25,28.3-7.27,9.46-15.67,6-23.89,13.64-14,13-9.11,41.25-7.37,51.31,6,34.63,24.56,40.94,20.39,64.86-1.07,6.12-3.55,13-1.78,22.83A45.09,45.09,0,0,0,2303.78,2212.83Z" transform="translate(-434.15 -463.45)"/><g class="cls-34"><path class="cls-35" d="M2474,2131c-1.63-16.93,10.95-25.31,8.84-37.35-1.7-9.68-12.22-18-22.12-19.55-21.14-3.22-34.84,29.86-55.93,27.12-16.33-2.11-14.52-22.76-33-30.36-29.31-12.08-60.12,29.15-79.7,18.76-5.9-3.13-11.86-11.5-12.28-34.8-11.26,13.82-6.84,39.47-5.2,49,6,34.63,24.56,40.94,20.39,64.86-1.07,6.12-3.55,13-1.78,22.83a45.09,45.09,0,0,0,10.57,21.4c1.85,3.46,4,6.66,5.41,6.21,5.95-1.87-17-61.19,4.14-83.13,10.92-11.33,23.21-1.88,67.8-5.72s56.15-15.45,69.62-7.43c12.27,7.29,23.23,29,14.15,95.12l7.58-2.15c-3.4-21.38.31-35.11,4.56-43.84,1.28-2.63,3-5.58,4.51-8.95a80.45,80.45,0,0,0-3.17-18.28C2476.12,2137.09,2474.48,2136.4,2474,2131Z" transform="translate(-434.15 -463.45)"/></g></g><path class="cls-12" d="M2274,2597.09c0,17.85-14,33.17-31.21,34.2s-31.29-12.62-31.29-30.53,14-33.22,31.29-34.21S2274,2579.23,2274,2597.09Z" transform="translate(-434.15 -463.45)"/><path class="cls-12" d="M2419.22,2588.54c0,17.74-13.79,33-30.82,34s-30.9-12.56-30.9-30.35,13.85-33,30.9-34S2419.22,2570.79,2419.22,2588.54Z" transform="translate(-434.15 -463.45)"/><path class="cls-12" d="M2562.64,2580.1c0,17.63-13.62,32.74-30.44,33.76s-30.51-12.5-30.51-30.18,13.67-32.8,30.51-33.76S2562.64,2562.46,2562.64,2580.1Z" transform="translate(-434.15 -463.45)"/><path class="cls-36" d="M2253,1902v327.68c0,46.53-33.45,85.94-74.81,88.07l-246.91,12.78-46.39,2.37-19.38,1V1973.35c0-.66,0-1.29,0-1.95s.1-1.5.14-2.27c.84-10.58,4.71-20.42,9.56-29,.14-.28.84-.53,1-.77,9.84-16.83,27-28.21,46-28.77l104.27-2.93a6.66,6.66,0,0,0,.31.73Z" transform="translate(-434.15 -463.45)"/><path class="cls-4" d="M2215.12,1186.19c0-40.67-25.76-74.76-59.78-82.8-1.21-.29-2.56-.54-3.8-.76a68.42,68.42,0,0,0-11.43-1l-714.49-4.17-705-4.13c-1.48,0-3,0-4.42.09a82.55,82.55,0,0,0-49.76,19.93l-.75.64q-3,2.58-5.69,5.42l-.13.14q-1.61,1.68-3.13,3.47a92.67,92.67,0,0,0-22.06,60.5v65h0v1021a93.66,93.66,0,0,0,2.71,22.52,89.85,89.85,0,0,0,4.05,12.43c10.86,26.5,33.83,45.65,61.68,50.3a80.23,80.23,0,0,0,17.48,1l1078.88-55.87h0l340.82-17.64c41.25-2.14,74.82-41.55,74.82-88v-947.6h0Z" transform="translate(-434.15 -463.45)"/><path class="cls-12" d="M2218.09,1185.68V2194.73c0,46.53-33.46,86-74.81,88.08l-345.78,17.88L720.78,2356.45c-44.13,2.28-83-30.84-88-75.82-.39-3.42-3-1097.71-3-1097.71,0-18.35,7.66-35.44,16.58-49.69.25-.4,1.7-.78,1.95-1.16,15.53-24,42.29-39.62,71.88-39.44l164.1,1L2143.14,1101C2184.49,1101.2,2218.09,1139.12,2218.09,1185.68Z" transform="translate(-434.15 -463.45)"/><path class="cls-37" d="M720.78,2327.55c-32.24,1.63-58.54-24.73-58.54-58.76V1183c0-34,26.3-61.61,58.54-61.46L2143.22,1128c28.11.13,50.93,26,50.93,57.65V2195.79c0,31.67-22.82,58.58-50.93,60Z" transform="translate(-434.15 -463.45)"/><path class="cls-4" d="M2143.22,1101l-1422.44-8.32c-47.47-.27-86.1,40.15-86.1,90.29V1248l1583.27-2v-60.45C2218,1139.11,2184.56,1101.19,2143.22,1101Z" transform="translate(-434.15 -463.45)"/><path class="cls-12" d="M787.8,1172c0,14.92-12.49,27-27.93,27s-28-12.16-28-27.11,12.55-27,28-27S787.8,1157,787.8,1172Z" transform="translate(-434.15 -463.45)"/><path class="cls-12" d="M885.35,1172.17c0,14.85-12.38,26.88-27.68,26.86s-27.76-12.1-27.76-27,12.44-26.91,27.76-26.86S885.35,1157.32,885.35,1172.17Z" transform="translate(-434.15 -463.45)"/><path class="cls-12" d="M982,1172.38c0,14.79-12.28,26.76-27.44,26.75s-27.51-12.05-27.51-26.87,12.32-26.8,27.51-26.74S982,1157.6,982,1172.38Z" transform="translate(-434.15 -463.45)"/><polygon class="cls-4" points="1696.58 1735.77 300.9 1802.3 300.9 947.58 1696.58 935.47 1696.58 1735.77"/><g class="cls-16"><polygon class="cls-12" points="1050.64 855.59 300.9 859.06 300.9 905.23 1050.64 900.18 1050.64 855.59"/><polygon class="cls-12" points="1616.75 852.96 1616.75 896.36 1696.58 895.82 1696.58 852.59 1616.75 852.96"/></g><g class="cls-17"><path class="cls-12" d="M1797.47,2300.68,720.78,2356.44c-44.13,2.28-83.31-30.82-88.24-75.8,0-1-2.78-1098.21-2.78-1098.21,0-18.13,7.71-35,16.31-49.2.26-.41,1.84-.78,2.09-1.16,15.44-24.63,42.55-40.76,72.47-40.57l163.22,1c.11.38.42.76.55,1.13,3,9.44,6.47,19,10.14,28.71a598.68,598.68,0,0,0,59.72,118.15c1.58,2.44,3.21,4.82,4.84,7.2a499.59,499.59,0,0,0,60.51,73.55,475.36,475.36,0,0,0,52.3,45.21,535.58,535.58,0,0,0,64.57,41.14c158.19,86.29,335.42,94,452.74,270.89,100.38,151.36,28.5,233.87,125.55,466.56q15.81,37.93,33.87,72.43,15.3,29.49,32,56.65C1786.13,2283.14,1791.78,2292,1797.47,2300.68Z" transform="translate(-434.15 -463.45)"/></g><path class="cls-12" d="M1282.36,2113.16c0,31.8-24.86,58.66-55.61,60s-55.92-23.51-55.92-55.48,25.07-58.85,55.92-60S1282.36,2081.36,1282.36,2113.16Z" transform="translate(-434.15 -463.45)"/><path class="cls-12" d="M1505.78,2104.13c0,31.45-24.32,58-54.39,59.3s-54.69-23.27-54.69-54.89,24.52-58.19,54.69-59.32S1505.78,2072.67,1505.78,2104.13Z" transform="translate(-434.15 -463.45)"/><path class="cls-12" d="M1724.34,2095.29c0,31.11-23.79,57.36-53.21,58.63s-53.5-23-53.5-54.32,24-57.53,53.5-58.64S1724.34,2064.18,1724.34,2095.29Z" transform="translate(-434.15 -463.45)"/><g class="cls-38"><path class="cls-39" d="M1466.83,2302c-377.8,19.79-513,76-574.83-3.86-57.12-73.86-9.78-349.34,58.1-427.93,106.54-123.36,275.66-132.84,503.29-143.91,210.2-10.24,337.92-16.45,437.81,71.43,92.63,81.5,151.41,368.08,94.1,450.81C1931.86,2325.64,1816.81,2283.63,1466.83,2302Z" transform="translate(-434.15 -463.45)"/><path class="cls-40" d="M1328.31,1728.47l-44.13,12.18c-10.84,3-15.79,15.61-9.74,24.85,30.09,46,109.42,160.87,158.83,173.15,50.88,12.64,145.35-137,176.61-189.35a15.9,15.9,0,0,0-8.79-23.55l-31.63-9.49a207.33,207.33,0,0,0-80.55-7.61l-119.44,12.1A249.75,249.75,0,0,0,1328.31,1728.47Z" transform="translate(-434.15 -463.45)"/><path class="cls-41" d="M1361,1557.5s24.12,172.9-9.25,190.16l94.75,101,95.22-124s-35.91-26.46-26.44-169.25Z" transform="translate(-434.15 -463.45)"/><path class="cls-42" d="M1304.76,1309.5c-3.45,4.66-48.36,224.26,106.36,245.12,152.75,20.59,159.44-139.6,157.51-207.51s-71.56-92.51-111.58-97.22S1317,1293,1304.76,1309.5Z" transform="translate(-434.15 -463.45)"/><path class="cls-43" d="M1295.76,1437.44s-7.77-35.75-34.4-13.2,15.72,81.53,50.6,78.68Z" transform="translate(-434.15 -463.45)"/><path class="cls-44" d="M1564,1410.43c-4.36,3-16.9,86.3-16.9,86.3s21.92,2.34,37.77-27.65S1608.24,1379.94,1564,1410.43Z" transform="translate(-434.15 -463.45)"/><path class="cls-9" d="M1623.47,1251.54c-15.92-26.64-56.24-14-68-39.75-9.91-21.66,13.38-42,.89-60.71-10.46-15.68-36.06-15.39-40.62-15.33-34.7.4-42.65,28-67.47,27.29-30.37-.85-31.56-42.45-71.84-60.17-39.22-17.26-96.77-3.67-120.11,28.3-18.17,24.88-2.71,43.26-26.55,75.28-16.42,22.07-31,23-39.13,44.66-7.69,20.32-2.49,39.66,1.58,54,9.73,34.39,27.87,49.49,55.21,85.91a585.41,585.41,0,0,1,46.23,72.17,811.91,811.91,0,0,1,27.11,86.14c8.69,34,8.16,40.93,16.27,51.86,27.91,37.61,91.38,32.85,118,30.86,30.44-2.28,68.21-5.11,87.17-31.86,10.24-14.44,8.95-27.33,11.33-61.87a860.6,860.6,0,0,1,13.13-101.23,308.35,308.35,0,0,1,12.34-42.95c11-29.59,22.38-34.36,34.75-64.9C1623.63,1304.79,1636.42,1273.21,1623.47,1251.54Zm-125.75,231.39c-18.78,5.29-31.47.86-57-.34-51.22-2.41-67.47,21.8-91.76,11.51-10.14-4.3-33.62-16.41-38.6-40a189.94,189.94,0,0,1-1.6-60.65c4-29.71,8.71-64,32.54-79.21,34.51-22,78.44,15.49,109.88-9,12-9.35,16.83-23.56,19-34.35,7,2.39,62.18,22.42,82.44,81.46,12.48,36.34,5.33,68.87-.74,86.58C1540.5,1456.29,1523.07,1475.79,1497.72,1482.93Z" transform="translate(-434.15 -463.45)"/><path class="cls-45" d="M1391.73,1520.13a125.94,125.94,0,0,0,82.68-3.35c3.45-1.35,6.38,2.39,3.51,4.47-11.85,8.6-29.18,17.81-48.06,16.65-15.62-1-30-6.81-41.07-13C1385.62,1523.18,1388.13,1519.06,1391.73,1520.13Z" transform="translate(-434.15 -463.45)"/></g><path class="cls-12" d="M1274.49,2112.93c0,26.44-21.57,48.71-48.23,49.73s-48.41-19.66-48.41-46.2,21.7-48.82,48.41-49.74S1274.49,2086.49,1274.49,2112.93Z" transform="translate(-434.15 -463.45)"/><path class="cls-12" d="M1498.1,2104.76c0,26.2-21.17,48.25-47.34,49.26a45.45,45.45,0,0,1-47.53-45.79c0-26.3,21.31-48.36,47.53-49.27A45.46,45.46,0,0,1,1498.1,2104.76Z" transform="translate(-434.15 -463.45)"/><path class="cls-12" d="M1717.64,2096.75c0,26-20.79,47.8-46.48,48.79s-46.66-19.33-46.66-45.39,20.91-47.91,46.66-48.8S1717.64,2070.79,1717.64,2096.75Z" transform="translate(-434.15 -463.45)"/><path class="cls-11" d="M1098.18,1215.86c30.09-37.69,47.43-81.94,47.43-129.28,0-137.64-146.56-249.22-327.34-249.22S490.92,948.94,490.92,1086.58s146.56,249.23,327.35,249.23c67.75,0,130.7-15.67,182.92-42.52,34.53,5.89,88.11,15.78,116.39,21a10.87,10.87,0,0,0,12.17-14.52Z" transform="translate(-434.15 -463.45)"/><g class="cls-34"><path class="cls-46" d="M997.4,1139.32c-73.41-30.85-154.12,34.28-204.58-11.15-50.87-45.8,4.08-136.34-44.64-200.86C725,896.54,685.92,882,641.28,876.9c-90.45,44.35-150.36,121.69-150.36,209.68,0,137.65,146.56,249.23,327.35,249.23,67.75,0,130.7-15.67,182.92-42.52,27.24,4.65,66.34,11.79,95.52,17.18C1075.19,1198.87,1035.59,1155.38,997.4,1139.32Z" transform="translate(-434.15 -463.45)"/></g><path class="cls-12" d="M1035.35,995.5a12.56,12.56,0,0,1-12.56,12.57H624.84a12.57,12.57,0,0,1-12.57-12.57h0a12.57,12.57,0,0,1,12.57-12.57h397.95a12.56,12.56,0,0,1,12.56,12.57Z" transform="translate(-434.15 -463.45)"/><path class="cls-12" d="M1035.35,1070.9a12.56,12.56,0,0,1-12.56,12.57H624.84a12.57,12.57,0,0,1-12.57-12.57h0a12.57,12.57,0,0,1,12.57-12.57h397.95a12.56,12.56,0,0,1,12.56,12.57Z" transform="translate(-434.15 -463.45)"/><path class="cls-12" d="M846.85,1146.3a12.57,12.57,0,0,1-12.57,12.57H624.84a12.57,12.57,0,0,1-12.57-12.57h0a12.57,12.57,0,0,1,12.57-12.57H834.28a12.57,12.57,0,0,1,12.57,12.57Z" transform="translate(-434.15 -463.45)"/></g></g></svg>